PathFileType	4	(X/Y/Z)	Patient4_TMGait_0pt4_02_left_38.trc.trc
DataRate	CameraRate	NumFrames	NumMarkers	Units	OrigDataRate	OrigDataStartFrame	OrigNumFrames
74.866310160428	74.866310160428	6	33	mm	74.866310160428	89	       141
Frame#	Time	Sacral			L.Shoulder			Chest			R.Shoulder			Neck			R.ASIS			L.ASIS			R.Thigh.Superior			R.Thigh.Lateral			R.Thigh.Inferior			R.Patella			L.Thigh.Superior			L.Thigh.Lateral			L.Thigh.Inferior			L.Patella			L.Shank.Superior			L.Shank.Lateral			L.Shank.Inferior			R.Shank.Superior			R.Shank.Lateral			R.Shank.Inferior			R.Heel			R.Midfoot.Superior			R.Midfoot.Lateral			R.Toe			L.Heel			L.Midfoot.Lateral			L.Midfoot.Superior			L.Toe			L.Elbow			L.Wrist			R.Elbow			R.Wrist			
		X1	Y1	Z1	X2	Y2	Z2	X3	Y3	Z3	X4	Y4	Z4	X5	Y5	Z5	X6	Y6	Z6	X7	Y7	Z7	X8	Y8	Z8	X9	Y9	Z9	X10	Y10	Z10	X11	Y11	Z11	X12	Y12	Z12	X13	Y13	Z13	X14	Y14	Z14	X15	Y15	Z15	X16	Y16	Z16	X17	Y17	Z17	X18	Y18	Z18	X19	Y19	Z19	X20	Y20	Z20	X21	Y21	Z21	X22	Y22	Z22	X23	Y23	Z23	X24	Y24	Z24	X25	Y25	Z25	X26	Y26	Z26	X27	Y27	Z27	X28	Y28	Z28	X29	Y29	Z29	X30	Y30	Z30	X31	Y31	Z31	X32	Y32	Z32	X33	Y33	Z33	

89	51.955428571429	852.330038656303	1006.193438212701	518.424812722778	1031.249440518776	1431.920174471511	332.335429545685	1133.319516688512	1368.832207375446	496.026460187754	1046.630396890452	1442.325517197034	668.434627150031	1008.016813748684	1495.777964295325	489.006882695603	1081.649790433182	942.209818934900	636.356180825066	1067.146938168889	962.747655482344	363.414108043575	1128.678159992254	744.385002885263	611.291537334655	1050.032551840545	634.217398925048	673.395354438826	1130.290415316955	583.354556245484	594.670021565390	1133.709809624146	495.462085794956	602.631576223086	1111.084922642599	745.055058153086	380.636867230728	1025.128717391381	633.293489691305	306.921027407928	1112.488514443607	547.934297613342	360.505542165157	1107.391721713047	465.549284632064	355.476450790685	1044.953667650870	405.729504744702	345.890296084149	910.891180473358	350.305658805270	291.743154398314	910.692843768914	219.307076866754	344.068573250255	1105.220651622010	406.135704138527	611.569919561488	1034.184857323966	303.779403380504	675.200227413474	1075.522768171541	207.292947458585	613.834693905068	942.470304708163	43.282288485882	588.556460254860	1113.504821455522	97.015249474586	622.882047103675	1026.389386114620	36.797111357470	662.847091757211	1234.580030880657	44.868191193643	649.777422346619	730.469327337792	125.378697612273	377.190454337057	794.571092283719	93.668984842914	295.565616476595	895.601178697670	120.491649794757	318.881209833094	992.398288992222	34.202195191078	285.953587158606	994.185720722851	1083.549478930790	209.808931383247	1108.031982091013	844.984684949807	212.737860334842	994.980520669973	1101.480388191498	798.936299295415	1096.238747443593	860.199283365283	793.512598193573	
90	51.968785714286	851.830440904617	1006.542664141984	522.336168373750	1029.841291512960	1432.137088206697	335.388734456825	1133.283883753557	1368.769125678824	498.160600590509	1048.336665637820	1442.337053406041	671.382186221960	1008.098435214760	1495.980817680447	492.252496749961	1081.686409691319	942.354244866922	638.748162037783	1065.710621524091	962.861791997687	365.909486974896	1127.100887873598	743.682261373762	613.982821106626	1047.351533891940	634.074522547057	675.570090483557	1127.074209947879	582.816240310846	596.643697931238	1129.680345240731	494.978007166181	604.211367151036	1114.778468968296	747.940688392010	384.227726121774	1033.494679048086	634.159375294787	309.361163923974	1122.698440706448	550.775747566662	363.700360966327	1118.675069390834	467.318353387633	358.214037905291	1054.784971930135	407.236519873473	348.251664614421	919.304606344777	355.736009087433	293.484816521205	915.191456205449	224.697307590807	345.565603730924	1101.085497486662	405.822095806820	612.854263515241	1029.899955771135	303.456811661358	676.153646257285	1070.778179206539	207.111574062601	614.311244982458	937.121449852702	43.310454024319	588.667446044925	1108.155929941397	96.921500991711	622.991845575696	1021.018599661190	36.764363533364	662.954196542668	1229.270849662323	44.485560734995	650.008946680576	731.617548879841	137.356550247752	377.702080201439	794.896629373876	103.343473151525	296.198364861543	897.176593512638	125.708958474188	320.055246176576	990.112431978926	34.208735933350	287.127711420181	989.616055617603	1083.485556878200	214.556909921234	1097.280132646482	842.052896230323	215.415137968750	1001.825183534383	1101.045712361837	803.371056610104	1110.730807133969	863.335181456856	795.804914770849	
91	51.982142857143	851.129827664757	1006.885633466409	526.067792889098	1028.331688595686	1432.302761458467	338.246953162788	1133.166557973442	1368.605860825736	500.058951496415	1050.043345236127	1442.265727907474	674.119066440844	1008.193672961032	1496.147282553338	495.294208431379	1081.576673258083	942.437759014597	640.947091405198	1064.031929725034	962.926743895099	368.192635510500	1125.459325769168	743.019903957937	616.243338358625	1044.806797263858	633.934549506433	677.529003629065	1123.875203108937	582.287128567213	598.298075636739	1125.697321713751	494.507920681041	605.555808543904	1117.969434035059	750.988944832137	387.631695657982	1041.267814585307	635.377696103831	311.675261184783	1132.233016874156	554.046756916835	366.747318882756	1129.461776511495	469.640660502726	360.903957175357	1064.420725385179	409.128049528103	350.564122912518	927.788243596707	360.988852106751	295.232782111165	920.288688538979	229.952623885450	347.156054433972	1096.993099176147	405.522767886760	613.956690454492	1025.667786931003	303.182942006794	677.026565839845	1066.037811833592	206.946052662076	614.717206168470	931.755090826997	43.352086189326	588.776174369030	1102.787931453711	96.836277061576	623.085428322993	1015.631928109393	36.744881487088	663.057694231360	1223.942009140944	44.116255171003	650.228762046413	733.910480052663	148.321316093257	378.318103831854	796.557065048370	112.404187872564	296.968836007699	899.822868399692	130.876028575373	321.441024722081	989.413946961815	34.548368205818	288.545500705884	984.961260649790	1083.441399570935	219.013951736402	1086.709022051577	839.504498307539	217.852612218767	1009.007917388828	1100.613650818188	807.631811540377	1125.495929755381	866.786683776379	797.776749294805	
92	51.995500000000	850.254448658408	1007.245169949533	529.633255023397	1026.751286191043	1432.447231479092	340.913115982531	1132.973171092984	1368.378627154217	501.736942243513	1051.727111803548	1442.143807978185	676.640867226271	1008.303552108729	1496.299216871294	498.133453713795	1081.344755581375	942.474584243686	642.962906076533	1062.126977746120	962.989153138446	370.291431571336	1123.786498182758	742.408595550336	618.095541032202	1042.403275026194	633.803514852571	679.272569655960	1120.721574252788	581.768526186441	599.655023150392	1121.791269851414	494.053698527313	606.667280123140	1120.586845657951	754.173065679859	390.787402989623	1048.240723530669	636.946087431041	313.841821173822	1140.911460094757	557.704841397187	369.537792478650	1139.570809295932	472.491128659682	363.411704910197	1073.714911312345	411.388771155746	352.732574994922	936.206706463251	365.861194350004	296.948042456845	926.069488780397	234.819926841957	348.762284464134	1092.962528915567	405.240853174452	614.880342202472	1021.497781978307	302.963094728815	677.815694426679	1061.311968163571	206.798471083068	615.059982487666	926.380078596700	43.408706491635	588.886557624943	1097.416726157404	96.758732324269	623.176433325809	1010.242426793119	36.741750881622	663.162662587487	1218.603953539629	43.771777276108	650.432988386131	737.532813616891	157.665804895592	379.030117717894	799.774151553187	120.311679278801	297.855205648670	903.755667456282	135.688635497887	322.944522254935	990.724664692553	35.238123629932	290.117336710923	980.222067884363	1083.453939376010	223.170682148300	1076.372396666230	837.359510403351	220.013236844429	1016.521103002433	1100.214194757393	811.664354948379	1140.491078980920	870.576657500644	799.354642572422	
93	52.008857142857	849.235585938604	1007.646865037642	533.054239080529	1025.124498897053	1432.599627064974	343.398255445165	1132.713654064935	1368.122348092261	503.211114612166	1053.381098869575	1442.007107478041	678.949038271087	1008.430387821522	1496.456401463089	500.781085532256	1081.013118084908	942.475082245794	644.796337863513	1060.009286279223	963.100664647717	372.226008407560	1122.095551085935	741.849329540685	619.582789729625	1040.112906841353	633.685643428508	680.805222399199	1117.616386804278	581.260234320105	600.747457247870	1117.962989445754	493.617520574909	607.556074017743	1122.593901459400	757.464021548737	393.642105387060	1054.265145742718	638.839105749712	315.839293505633	1148.606784852753	561.686486503896	371.981325024755	1148.854887228226	475.822953552879	365.623208958512	1082.557274952642	413.982542890711	354.670442312073	944.463597389592	370.145068515842	298.589717796755	932.641837716687	239.048442603321	350.300220596628	1088.989615757975	404.979529091843	615.634041299047	1017.377659804679	302.799098119772	678.516819483206	1056.600440669117	206.671056488920	615.347028518340	921.003022472738	43.479896537011	588.999520555725	1092.052462376705	96.689033789911	623.272082312101	1004.859179783857	36.755803905246	663.272060482981	1213.263050566328	43.461221334774	650.618585518688	742.679470433867	164.837266772145	379.830005593754	804.755938496717	126.577450770598	298.819701408932	909.194118283326	139.846603947173	324.450890683458	994.430104443960	36.254574517109	291.700272225468	975.410853967382	1083.559304567457	227.020280054642	1066.329692420010	835.630129480482	221.868613309402	1024.333345612005	1099.882649202758	815.416584954979	1155.663314285136	874.741053592823	800.466689055408	
94	52.022214285714	848.107055573146	1008.113045757128	536.355997710409	1023.467299430599	1432.783366180981	345.719637044020	1132.400727034586	1367.865329442826	504.496966802993	1055.013807569814	1441.888265741170	681.049925931131	1008.577490636114	1496.633113109199	503.254845458651	1080.601989450871	942.444830697181	646.440623980490	1057.691196129151	963.309802173606	374.005023545940	1120.381928436616	741.335263613490	620.755677307429	1037.890617895678	633.583863100509	682.134208239643	1114.543658420243	580.761654019508	601.609455599203	1114.192358383283	493.201241749072	608.236927320982	1123.984014230249	760.828706022550	396.153882121891	1059.254864341368	641.009695424160	317.648024791534	1155.241600884206	565.909416681591	374.016616456877	1157.201561433355	479.569640487770	367.457992432737	1090.870277675687	416.854510350272	356.308703746490	952.500549981069	373.646678631964	300.120992532086	940.118659049956	242.416387652841	351.687464745062	1085.054508257467	404.740812833352	616.229696143418	1013.282609493979	302.689261150625	679.126478770846	1051.896106260299	206.564946712860	615.584611230699	915.628426640368	43.563441979242	589.113952483229	1086.700381885383	96.627897973709	623.374324118612	999.486947426194	36.785754753727	663.386635351287	1207.921900406544	43.190074998339	650.783380815635	749.539786734753	169.391535412901	380.707710437325	811.678975979391	130.817697622721	299.809315275625	916.335278345696	143.089336589600	325.835589002010	1000.834795334560	37.539464339584	293.108096625513	970.551654854662	1083.786368275628	230.557163088606	1056.648598745665	834.317680624564	223.402674150501	1032.391795731718	1099.652362019635	818.842863967446	1170.948663580477	879.322200121630	801.046912725817	
